<?xml version="1.0" encoding="UTF-8"?>
<!DOCTYPE svg PUBLIC "-//W3C//DTD SVG 1.1//EN" "http://www.w3.org/Graphics/SVG/1.1/DTD/svg11.dtd">
<svg width="176mm" height="99mm" viewBox="0 0 16000 9000" version="1.1" xmlns="http://www.w3.org/2000/svg" xmlns:xlink="http://www.w3.org/1999/xlink" stroke-width="28.222" stroke-linejoin="round" xml:space="preserve">
 <path fill="rgb(255,255,255)" stroke="none" d="M 7987,8986 L -13,8986 -13,-13 15986,-13 15986,8986 7987,8986 Z"/>
 <path fill="none" stroke="rgb(179,179,179)" stroke-linejoin="round" d="M 7530,8140 L 3431,8140 3431,1272 11629,1272 11629,8140 7530,8140 Z"/>
 <path fill="none" stroke="rgb(179,179,179)" stroke-linejoin="round" d="M 3431,1270 L 3431,8138"/>
 <path fill="none" stroke="rgb(179,179,179)" stroke-linejoin="round" d="M 4455,1270 L 4455,8138"/>
 <path fill="none" stroke="rgb(179,179,179)" stroke-linejoin="round" d="M 5480,1270 L 5480,8138"/>
 <path fill="none" stroke="rgb(179,179,179)" stroke-linejoin="round" d="M 6505,1270 L 6505,8138"/>
 <path fill="none" stroke="rgb(179,179,179)" stroke-linejoin="round" d="M 7530,1270 L 7530,8138"/>
 <path fill="none" stroke="rgb(179,179,179)" stroke-linejoin="round" d="M 8554,1270 L 8554,8138"/>
 <path fill="none" stroke="rgb(179,179,179)" stroke-linejoin="round" d="M 9579,1270 L 9579,8138"/>
 <path fill="none" stroke="rgb(179,179,179)" stroke-linejoin="round" d="M 10604,1270 L 10604,8138"/>
 <path fill="none" stroke="rgb(179,179,179)" stroke-linejoin="round" d="M 11629,1270 L 11629,8138"/>
 <path fill="none" stroke="rgb(179,179,179)" stroke-linejoin="round" d="M 3281,8138 L 3431,8138"/>
 <path fill="none" stroke="rgb(179,179,179)" stroke-linejoin="round" d="M 3281,8138 L 3431,8138"/>
 <path fill="none" stroke="rgb(179,179,179)" stroke-linejoin="round" d="M 3281,7157 L 3431,7157"/>
 <path fill="none" stroke="rgb(179,179,179)" stroke-linejoin="round" d="M 3281,7157 L 3431,7157"/>
 <path fill="none" stroke="rgb(179,179,179)" stroke-linejoin="round" d="M 3281,6176 L 3431,6176"/>
 <path fill="none" stroke="rgb(179,179,179)" stroke-linejoin="round" d="M 3281,6176 L 3431,6176"/>
 <path fill="none" stroke="rgb(179,179,179)" stroke-linejoin="round" d="M 3281,5195 L 3431,5195"/>
 <path fill="none" stroke="rgb(179,179,179)" stroke-linejoin="round" d="M 3281,5195 L 3431,5195"/>
 <path fill="none" stroke="rgb(179,179,179)" stroke-linejoin="round" d="M 3281,4214 L 3431,4214"/>
 <path fill="none" stroke="rgb(179,179,179)" stroke-linejoin="round" d="M 3281,4214 L 3431,4214"/>
 <path fill="none" stroke="rgb(179,179,179)" stroke-linejoin="round" d="M 3281,3233 L 3431,3233"/>
 <path fill="none" stroke="rgb(179,179,179)" stroke-linejoin="round" d="M 3281,3233 L 3431,3233"/>
 <path fill="none" stroke="rgb(179,179,179)" stroke-linejoin="round" d="M 3281,2252 L 3431,2252"/>
 <path fill="none" stroke="rgb(179,179,179)" stroke-linejoin="round" d="M 3281,2252 L 3431,2252"/>
 <path fill="none" stroke="rgb(179,179,179)" stroke-linejoin="round" d="M 3281,1270 L 3431,1270"/>
 <path fill="none" stroke="rgb(179,179,179)" stroke-linejoin="round" d="M 3281,1270 L 3431,1270"/>
 <path fill="none" stroke="rgb(179,179,179)" stroke-linejoin="round" d="M 3431,8138 L 3431,1270"/>
 <path fill="none" stroke="rgb(179,179,179)" stroke-linejoin="round" d="M 3431,8289 L 3431,8139"/>
 <path fill="none" stroke="rgb(179,179,179)" stroke-linejoin="round" d="M 3431,8289 L 3431,8139"/>
 <path fill="none" stroke="rgb(179,179,179)" stroke-linejoin="round" d="M 4455,8289 L 4455,8139"/>
 <path fill="none" stroke="rgb(179,179,179)" stroke-linejoin="round" d="M 4455,8289 L 4455,8139"/>
 <path fill="none" stroke="rgb(179,179,179)" stroke-linejoin="round" d="M 5480,8289 L 5480,8139"/>
 <path fill="none" stroke="rgb(179,179,179)" stroke-linejoin="round" d="M 5480,8289 L 5480,8139"/>
 <path fill="none" stroke="rgb(179,179,179)" stroke-linejoin="round" d="M 6505,8289 L 6505,8139"/>
 <path fill="none" stroke="rgb(179,179,179)" stroke-linejoin="round" d="M 6505,8289 L 6505,8139"/>
 <path fill="none" stroke="rgb(179,179,179)" stroke-linejoin="round" d="M 7530,8289 L 7530,8139"/>
 <path fill="none" stroke="rgb(179,179,179)" stroke-linejoin="round" d="M 7530,8289 L 7530,8139"/>
 <path fill="none" stroke="rgb(179,179,179)" stroke-linejoin="round" d="M 8554,8289 L 8554,8139"/>
 <path fill="none" stroke="rgb(179,179,179)" stroke-linejoin="round" d="M 8554,8289 L 8554,8139"/>
 <path fill="none" stroke="rgb(179,179,179)" stroke-linejoin="round" d="M 9579,8289 L 9579,8139"/>
 <path fill="none" stroke="rgb(179,179,179)" stroke-linejoin="round" d="M 9579,8289 L 9579,8139"/>
 <path fill="none" stroke="rgb(179,179,179)" stroke-linejoin="round" d="M 10604,8289 L 10604,8139"/>
 <path fill="none" stroke="rgb(179,179,179)" stroke-linejoin="round" d="M 10604,8289 L 10604,8139"/>
 <path fill="none" stroke="rgb(179,179,179)" stroke-linejoin="round" d="M 11629,8289 L 11629,8139"/>
 <path fill="none" stroke="rgb(179,179,179)" stroke-linejoin="round" d="M 11629,8289 L 11629,8139"/>
 <path fill="none" stroke="rgb(179,179,179)" stroke-linejoin="round" d="M 3431,8138 L 11629,8138"/>
 <path fill="rgb(255,66,14)" stroke="none" d="M 3431,7893 L 3431,7403 6501,7403 6501,7893 3431,7893 Z"/>
 <path fill="rgb(255,66,14)" stroke="none" d="M 3431,6912 L 3431,6421 3431,6421 3431,6912 Z"/>
 <path fill="rgb(255,66,14)" stroke="none" d="M 3431,5931 L 3431,5440 8743,5440 8743,5931 3431,5931 Z"/>
 <path fill="rgb(255,66,14)" stroke="none" d="M 3431,4949 L 3431,4460 3431,4460 3431,4949 Z"/>
 <path fill="rgb(255,66,14)" stroke="none" d="M 3431,3969 L 3431,3478 8906,3478 8906,3969 3431,3969 Z"/>
 <path fill="rgb(255,66,14)" stroke="none" d="M 3431,2988 L 3431,2497 3431,2497 3431,2988 Z"/>
 <path fill="rgb(255,66,14)" stroke="none" d="M 3431,2006 L 3431,1516 3431,1516 3431,2006 Z"/>
 <path fill="rgb(255,211,32)" stroke="none" d="M 6501,7893 L 6501,7403 7007,7403 7007,7893 6501,7893 Z"/>
 <path fill="rgb(255,211,32)" stroke="none" d="M 3431,6912 L 3431,6421 7354,6421 7354,6912 3431,6912 Z"/>
 <path fill="rgb(255,211,32)" stroke="none" d="M 8743,5931 L 8743,5440 9255,5440 9255,5931 8743,5931 Z"/>
 <path fill="rgb(255,211,32)" stroke="none" d="M 3431,4949 L 3431,4460 6278,4460 6278,4949 3431,4949 Z"/>
 <path fill="rgb(255,211,32)" stroke="none" d="M 8906,3969 L 8906,3478 9403,3478 9403,3969 8906,3969 Z"/>
 <path fill="rgb(255,211,32)" stroke="none" d="M 3431,2988 L 3431,2497 10821,2497 10821,2988 3431,2988 Z"/>
 <path fill="rgb(255,211,32)" stroke="none" d="M 3431,2006 L 3431,1516 10972,1516 10972,2006 3431,2006 Z"/>
 <path fill="rgb(87,157,28)" stroke="none" d="M 9255,5931 L 9255,5440 9256,5440 9256,5931 9255,5931 Z"/>
 <path fill="rgb(87,157,28)" stroke="none" d="M 6278,4949 L 6278,4460 10600,4460 10600,4949 6278,4949 Z"/>
 <path fill="rgb(126,0,33)" stroke="none" d="M 7007,7893 L 7007,7403 7368,7403 7368,7893 7007,7893 Z"/>
 <path fill="rgb(126,0,33)" stroke="none" d="M 9256,5931 L 9256,5440 10545,5440 10545,5931 9256,5931 Z"/>
 <path fill="rgb(126,0,33)" stroke="none" d="M 9403,3969 L 9403,3478 10722,3478 10722,3969 9403,3969 Z"/>
 <path fill="rgb(131,202,255)" stroke="none" d="M 7368,7893 L 7368,7403 9590,7403 9590,7893 7368,7893 Z"/>
 <path fill="rgb(131,202,255)" stroke="none" d="M 7354,6912 L 7354,6421 9603,6421 9603,6912 7354,6912 Z"/>
 <text class="SVGTextShape"><tspan class="TextParagraph" font-family="Liberation Serif, serif" font-size="388px" font-weight="400"><tspan class="TextPosition" x="1488" y="7778"><tspan fill="rgb(0,0,0)" stroke="none" style="white-space: pre">Smith,IRV</tspan></tspan></tspan></text>
 <text class="SVGTextShape"><tspan class="TextParagraph" font-family="Liberation Serif, serif" font-size="388px" font-weight="400"><tspan class="TextPosition" x="2514" y="6797"><tspan fill="rgb(0,0,0)" stroke="none" style="white-space: pre">IRV</tspan></tspan></tspan></text>
 <text class="SVGTextShape"><tspan class="TextParagraph" font-family="Liberation Serif, serif" font-size="388px" font-weight="400"><tspan class="TextPosition" x="1436" y="5815"><tspan fill="rgb(0,0,0)" stroke="none" style="white-space: pre">Smith,TVP</tspan></tspan></tspan></text>
 <text class="SVGTextShape"><tspan class="TextParagraph" font-family="Liberation Serif, serif" font-size="388px" font-weight="400"><tspan class="TextPosition" x="872" y="4834"><tspan fill="rgb(0,0,0)" stroke="none" style="white-space: pre">Top Vote Path</tspan></tspan></tspan></text>
 <text class="SVGTextShape"><tspan class="TextParagraph" font-family="Liberation Serif, serif" font-size="388px" font-weight="400"><tspan class="TextPosition" x="1411" y="3853"><tspan fill="rgb(0,0,0)" stroke="none" style="white-space: pre">Smith,IFPP</tspan></tspan></tspan></text>
 <text class="SVGTextShape"><tspan class="TextParagraph" font-family="Liberation Serif, serif" font-size="388px" font-weight="400"><tspan class="TextPosition" x="307" y="2871"><tspan fill="rgb(0,0,0)" stroke="none" style="white-space: pre">Resistant,Plurality</tspan></tspan></tspan></text>
 <text class="SVGTextShape"><tspan class="TextParagraph" font-family="Liberation Serif, serif" font-size="388px" font-weight="400"><tspan class="TextPosition" x="2437" y="1890"><tspan fill="rgb(0,0,0)" stroke="none" style="white-space: pre">IFPP</tspan></tspan></tspan></text>
 <text class="SVGTextShape"><tspan class="TextParagraph" font-family="Liberation Serif, serif" font-size="388px" font-weight="400"><tspan class="TextPosition" x="3020" y="8723"><tspan fill="rgb(0,0,0)" stroke="none" style="white-space: pre">0.0%</tspan></tspan></tspan></text>
 <text class="SVGTextShape"><tspan class="TextParagraph" font-family="Liberation Serif, serif" font-size="388px" font-weight="400"><tspan class="TextPosition" x="4044" y="8723"><tspan fill="rgb(0,0,0)" stroke="none" style="white-space: pre">0.5%</tspan></tspan></tspan></text>
 <text class="SVGTextShape"><tspan class="TextParagraph" font-family="Liberation Serif, serif" font-size="388px" font-weight="400"><tspan class="TextPosition" x="5069" y="8723"><tspan fill="rgb(0,0,0)" stroke="none" style="white-space: pre">1.0%</tspan></tspan></tspan></text>
 <text class="SVGTextShape"><tspan class="TextParagraph" font-family="Liberation Serif, serif" font-size="388px" font-weight="400"><tspan class="TextPosition" x="6094" y="8723"><tspan fill="rgb(0,0,0)" stroke="none" style="white-space: pre">1.5%</tspan></tspan></tspan></text>
 <text class="SVGTextShape"><tspan class="TextParagraph" font-family="Liberation Serif, serif" font-size="388px" font-weight="400"><tspan class="TextPosition" x="7119" y="8723"><tspan fill="rgb(0,0,0)" stroke="none" style="white-space: pre">2.0%</tspan></tspan></tspan></text>
 <text class="SVGTextShape"><tspan class="TextParagraph" font-family="Liberation Serif, serif" font-size="388px" font-weight="400"><tspan class="TextPosition" x="8144" y="8723"><tspan fill="rgb(0,0,0)" stroke="none" style="white-space: pre">2.5%</tspan></tspan></tspan></text>
 <text class="SVGTextShape"><tspan class="TextParagraph" font-family="Liberation Serif, serif" font-size="388px" font-weight="400"><tspan class="TextPosition" x="9169" y="8723"><tspan fill="rgb(0,0,0)" stroke="none" style="white-space: pre">3.0%</tspan></tspan></tspan></text>
 <text class="SVGTextShape"><tspan class="TextParagraph" font-family="Liberation Serif, serif" font-size="388px" font-weight="400"><tspan class="TextPosition" x="10194" y="8723"><tspan fill="rgb(0,0,0)" stroke="none" style="white-space: pre">3.5%</tspan></tspan></tspan></text>
 <text class="SVGTextShape"><tspan class="TextParagraph" font-family="Liberation Serif, serif" font-size="388px" font-weight="400"><tspan class="TextPosition" x="11219" y="8723"><tspan fill="rgb(0,0,0)" stroke="none" style="white-space: pre">4.0%</tspan></tspan></tspan></text>
 <text class="SVGTextShape"><tspan class="TextParagraph" font-family="Liberation Serif, serif" font-size="459px" font-weight="400"><tspan class="TextPosition" x="2625" y="851"><tspan fill="rgb(0,0,0)" stroke="none" style="white-space: pre">Manipulability, 99 voters, 3 candidates, 4D spatial model</tspan></tspan></tspan></text>
 <path fill="none" stroke="rgb(0,0,0)" stroke-linejoin="round" d="M 14044,5816 L 12312,5816 12312,3157 15776,3157 15776,5816 14044,5816 Z"/>
 <path fill="rgb(255,66,14)" stroke="none" d="M 12556,3579 L 12440,3579 12440,3347 12672,3347 12672,3579 12556,3579 Z"/>
 <path fill="rgb(255,211,32)" stroke="none" d="M 12556,4091 L 12440,4091 12440,3859 12672,3859 12672,4091 12556,4091 Z"/>
 <path fill="rgb(87,157,28)" stroke="none" d="M 12556,4602 L 12440,4602 12440,4371 12672,4371 12672,4602 12556,4602 Z"/>
 <path fill="rgb(126,0,33)" stroke="none" d="M 12556,5114 L 12440,5114 12440,4882 12672,4882 12672,5114 12556,5114 Z"/>
 <path fill="rgb(131,202,255)" stroke="none" d="M 12556,5626 L 12440,5626 12440,5394 12672,5394 12672,5626 12556,5626 Z"/>
 <text class="SVGTextShape"><tspan class="TextParagraph" font-family="Liberation Serif, serif" font-size="388px" font-weight="400"><tspan class="TextPosition" x="12772" y="3591"><tspan fill="rgb(0,0,0)" stroke="none" style="white-space: pre">Burial only</tspan></tspan></tspan></text>
 <text class="SVGTextShape"><tspan class="TextParagraph" font-family="Liberation Serif, serif" font-size="388px" font-weight="400"><tspan class="TextPosition" x="12772" y="4103"><tspan fill="rgb(0,0,0)" stroke="none" style="white-space: pre">Compromise only</tspan></tspan></tspan></text>
 <text class="SVGTextShape"><tspan class="TextParagraph" font-family="Liberation Serif, serif" font-size="388px" font-weight="400"><tspan class="TextPosition" x="12772" y="4614"><tspan fill="rgb(0,0,0)" stroke="none" style="white-space: pre">Either</tspan></tspan></tspan></text>
 <text class="SVGTextShape"><tspan class="TextParagraph" font-family="Liberation Serif, serif" font-size="388px" font-weight="400"><tspan class="TextPosition" x="12772" y="5126"><tspan fill="rgb(0,0,0)" stroke="none" style="white-space: pre">Both at once</tspan></tspan></tspan></text>
 <text class="SVGTextShape"><tspan class="TextParagraph" font-family="Liberation Serif, serif" font-size="388px" font-weight="400"><tspan class="TextPosition" x="12772" y="5638"><tspan fill="rgb(0,0,0)" stroke="none" style="white-space: pre">Pushover/other</tspan></tspan></tspan></text>
</svg>
